Coordinates
version=1
nRows=21
nColumns=22
inDegrees=yes

Units are S.I. units (second, meters, Newtons, ...)
If the header above contains a line with 'inDegrees', this indicates whether rotational values are in degrees (yes) or radians (no).

endheader
time	pelvis_tilt	pelvis_list	pelvis_rotation	pelvis_tx	pelvis_ty	pelvis_tz	hip_flexion_r	hip_adduction_r	hip_rotation_r	knee_angle_r	ankle_angle_r	subtalar_angle_r	hip_flexion_l	hip_adduction_l	hip_rotation_l	knee_angle_l	ankle_angle_l	subtalar_angle_l	lumbar_extension	lumbar_bending	lumbar_rotation
      2.57000000	      3.27924004	     -4.11666142	     31.98884226	      0.29398216	      1.06776295	      0.94474922	     15.15934573	      5.27914497	      6.45379426	    -18.36220482	      5.06294992	      2.15188770	     -5.88557833	     -0.97020067	     12.43535724	    -35.95853195	      4.76243929	      9.40333427	     -3.21389056	      2.99199524	     -9.89184645
      2.58000000	      3.49354804	     -4.20988055	     32.76863304	      0.30240532	      1.06897989	      0.94057623	     14.28381217	      5.37910859	      5.67140977	    -18.00146891	      5.36449677	      1.68289334	     -4.91108880	     -1.37198272	     12.09912172	    -38.17395851	      2.96091674	     11.17974138	     -3.25744127	      3.17757453	     -9.86793000
      2.59000000	      3.72062396	     -4.30393872	     33.46935149	      0.31068767	      1.07008346	      0.93658465	     13.38584687	      5.51886084	      4.96669202	    -17.58604572	      5.64960662	      1.35324394	     -3.84673474	     -1.82309808	     11.56308578	    -40.43429295	      1.27567227	     12.81520725	     -3.34232595	      3.35929437	     -9.68878318
      2.60000000	      4.00252291	     -4.44608691	     34.16942817	      0.31874744	      1.07101585	      0.93270846	     12.49031157	      5.74807371	      4.23249990	    -17.17675565	      5.99684095	      1.14926542	     -2.68329153	     -2.40288372	     10.90875735	    -42.75446560	     -0.14972951	     13.98028942	     -3.47942548	      3.61701685	     -9.45699485
      2.61000000	      4.31891819	     -4.59891944	     34.81891012	      0.32661582	      1.07182139	      0.92901523	     11.59968175	      6.04094140	      3.58751198	    -16.78273127	      6.32808976	      1.03715926	     -1.45202844	     -3.06302058	     10.13638334	    -45.07799468	     -1.32952464	     14.62610409	     -3.67395616	      3.90010859	     -9.15032594
      2.62000000	      4.65634905	     -4.75404393	     35.43015487	      0.33435735	      1.07252612	      0.92546100	     10.71129955	      6.37861365	      3.00943850	    -16.39048525	      6.66310215	      0.96863079	     -0.17577432	     -3.78870772	      9.30096339	    -47.34757299	     -2.23195780	     14.83038810	     -3.90243536	      4.18478122	     -8.76118441
      2.63000000	      4.97107637	     -4.95146625	     36.02333712	      0.34192599	      1.07304069	      0.92201799	      9.90911921	      6.76418725	      2.48050439	    -16.03831062	      6.99781070	      0.87566207	      1.20648751	     -4.57730150	      8.45553848	    -49.55242742	     -2.78685222	     14.44421392	     -4.09081140	      4.48599762	     -8.33305740
      2.64000000	      5.31641645	     -5.12922472	     36.58811353	      0.34937921	      1.07354262	      0.91866086	      9.08818626	      7.17888931	      2.02309403	    -15.69414925	      7.31115102	      0.80109784	      2.56606993	     -5.39186321	      7.62840899	    -51.61861361	     -3.04899593	     13.44929029	     -4.32542243	      4.77836014	     -7.86975858
      2.65000000	      5.65095605	     -5.28636005	     37.12384050	      0.35670577	      1.07403043	      0.91535538	      8.27594570	      7.59218739	      1.63789122	    -15.34552907	      7.58004536	      0.70685197	      3.92085594	     -6.18322608	      6.85712186	    -53.51513103	     -3.07900328	     12.00328503	     -4.56284144	      5.03856805	     -7.38954205
      2.66000000	      5.96228710	     -5.41359130	     37.63054579	      0.36389417	      1.07451563	      0.91205803	      7.47942026	      7.98264578	      1.30526415	    -15.00250098	      7.82394690	      0.58492087	      5.25547383	     -6.91581864	      6.15725859	    -55.21361972	     -2.87080314	     10.23499004	     -4.79460466	      5.25443914	     -6.90278776
      2.67000000	      6.22892196	     -5.50010110	     38.10836404	      0.37091543	      1.07500454	      0.90871953	      6.70793686	      8.32069736	      1.01773602	    -14.66523462	      8.05084061	      0.43290381	      6.56440794	     -7.54020243	      5.54825969	    -56.69126945	     -2.47221827	      8.26606471	     -5.00865758	      5.40815365	     -6.41104382
      2.68000000	      6.43867924	     -5.53807713	     38.56114574	      0.37773496	      1.07550419	      0.90530101	      5.96594636	      8.58571723	      0.76746292	    -14.33680755	      8.25620360	      0.25604177	      7.84253807	     -8.02232489	      5.03710655	    -57.93622514	     -1.92561591	      6.24651959	     -5.20183583	      5.49097011	     -5.92410523
      2.69000000	      6.58422001	     -5.52078206	     38.99425320	      0.38434639	      1.07601633	      0.90176310	      5.25467694	      8.76177889	      0.53999453	    -14.02121424	      8.44442518	      0.06238207	      9.08257073	     -8.34077576	      4.61616797	    -58.93937156	     -1.27821276	      4.30383301	     -5.37215242	      5.49616887	     -5.45510088
      2.70000000	      6.66880485	     -5.44448026	     39.41365356	      0.39074673	      1.07654069	      0.89808602	      4.57174394	      8.84360911	      0.30948110	    -13.72859563	      8.62512625	     -0.13620709	     10.27362481	     -8.49012084	      4.27533562	    -59.69832400	     -0.56569293	      2.54818502	     -5.52805026	      5.42475981	     -5.00562217
      2.71000000	      6.70150056	     -5.31870438	     39.83333709	      0.39693952	      1.07706318	      0.89425508	      3.91094965	      8.84297682	      0.06444668	    -13.45225681	      8.81757110	     -0.32650578	     11.41566376	     -8.48335166	      4.01245742	    -60.21984342	      0.18069331	      1.05111337	     -5.67094406	      5.29313698	     -4.58631985
      2.72000000	      6.67561872	     -5.12886353	     40.24865057	      0.40292484	      1.07757628	      0.89027691	      3.27715520	      8.74147238	     -0.22210385	    -13.21470888	      9.05797225	     -0.49218505	     12.49472055	     -8.30831571	      3.80048373	    -60.49732913	      0.95801956	     -0.13535864	     -5.81418693	      5.08258213	     -4.18078969
      2.73000000	      6.59059824	     -4.89849886	     40.65243054	      0.40877382	      1.07806059	      0.88615436	      2.64886732	      8.56277433	     -0.48195894	    -12.95430407	      9.30502519	     -0.62519198	     13.52364118	     -7.99997671	      3.60743384	    -60.54091172	      1.72201414	     -1.05629229	     -5.92989285	      4.81020077	     -3.80383894
      2.74000000	      6.47392751	     -4.64303680	     41.05482877	      0.41446133	      1.07849462	      0.88192506	      2.04048485	      8.33531413	     -0.79064041	    -12.71338191	      9.58541854	     -0.71363224	     14.49850027	     -7.60353530	      3.42389900	    -60.36598686	      2.48244406	     -1.66190598	     -6.04459721	      4.50679467	     -3.42601113
      2.75000000	      6.33174941	     -4.37895753	     41.44688022	      0.42003549	      1.07885634	      0.87762141	      1.45276821	      8.08023044	     -1.12622244	    -12.48558028	      9.89541212	     -0.75995119	     15.42499458	     -7.16094937	      3.21311627	    -59.98312612	      3.22434321	     -2.00064559	     -6.14977363	      4.18551700	     -3.04669983
      2.76000000	      6.17056851	     -4.11208675	     41.83082994	      0.42552359	      1.07913624	      0.87324116	      0.87669554	      7.80869261	     -1.47640519	    -12.25909767	     10.22307799	     -0.78461734	     16.30272538	     -6.69895108	      2.95120685	    -59.40474859	      3.91514085	     -2.19527897	     -6.24328561	      3.85490581	     -2.67177398
      2.77000000	      6.00461166	     -3.84074471	     42.20411939	      0.43092625	      1.07934559	      0.86881368	      0.30303005	      7.53014628	     -1.83052046	    -12.03969029	     10.56952893	     -0.79337764	     17.11969911	     -6.23540339	      2.63424277	    -58.64034689	      4.53762542	     -2.26959033	     -6.34489843	      3.51917385	     -2.28267189
